# Alias OBJ Model File
# Exported from SketchUp, (c) 2000-2012 Trimble Navigation Limited
# File units = meters

mtllib Walls.mtl

g Mesh1 Model

usemtl FrontColor
v 0 3 -6.81
vt -268.11 118.11
vn -1 0 -0
v 0 0 -6.81
vt -268.11 0
v 0 0 -0
vt 0 0
v 0 3 -0
vt 0 118.11
f 1/1/1 2/2/1 3/3/1 4/4/1 

v 3.78 3 -6.81
vt -148.819 118.11
vn 0 0 -1
v 3.78 0 -6.81
vt -148.819 0
f 5/5/2 6/6/2 2/3/2 1/4/2 

v 3.78 0 -4.73
vt 186.22 0
vn 1 0 -0
vt 268.11 0
vt 268.11 118.11
v 3.78 3 -4.73
vt 186.22 118.11
v 3.78 2 -4.73
vt 186.22 78.7402
f 7/7/3 6/8/3 5/9/3 8/10/3 9/11/3 

v 4.02 0 -4.73
vt -158.268 0
vt -148.819 78.7402
v 4.02 3 -4.73
vt -158.268 118.11
v 4.02 2 -4.73
vt -158.268 78.7402
f 10/12/2 7/6/2 9/13/2 8/5/2 11/14/2 12/15/2 

v 3.78 2 -3.59
vt 141.339 78.7402
v 3.78 3 -3.59
vt 141.339 118.11
f 13/16/3 9/11/3 8/10/3 14/17/3 

v 3.78 3 -2.153
vt 84.7638 118.11
v 3.78 0 -2.153
vt 84.7638 0
v 3.78 0 -3.59
vt 141.339 0
f 14/17/3 15/18/3 16/19/3 17/20/3 13/16/3 

v 3.78 3 -1.33
vt 52.3622 118.11
v 3.78 0 -1.33
vt 52.3622 0
f 18/21/3 19/22/3 16/19/3 15/18/3 

v 2.18 3 -1.33
vt 85.8268 118.11
vn 0 0 1
v 2.18 0 -1.33
vt 85.8268 0
vt 148.819 0
vt 148.819 118.11
f 20/23/4 21/24/4 19/25/4 18/26/4 

v 2.18 0 -0
v 2.18 3 -0
f 22/3/3 21/22/3 20/21/3 23/4/3 

f 3/3/4 22/24/4 23/23/4 4/4/4 

v 4.024 2 -2.153
vt 158.425 78.7402
v 4.024 3 -2.153
vt 158.425 118.11
v 4.024 0 -2.153
vt 158.425 0
f 24/27/4 25/28/4 15/26/4 16/25/4 26/29/4 

v 4.77 2 -2.153
vt 187.795 78.7402
v 4.77 3 -2.153
vt 187.795 118.11
f 24/27/4 27/30/4 28/31/4 25/28/4 

v 4.77 0 -2.153
vt 187.795 0
v 5.66 0 -2.153
vt 222.835 0
v 5.66 3 -2.153
vt 222.835 118.11
f 28/31/4 27/30/4 29/32/4 30/33/4 31/34/4 

v 5.66 2 -2.295
vt 90.3543 78.7402
v 5.66 3 -2.295
vt 90.3543 118.11
v 5.66 0 -2.295
vt 90.3543 0
f 32/35/3 33/36/3 31/18/3 30/19/3 34/37/3 

v 5.66 2 -3.44
vt 135.433 78.7402
v 5.66 3 -3.44
vt 135.433 118.11
f 32/35/3 35/38/3 36/39/3 33/36/3 

v 5.66 0 -3.44
vt 135.433 0
v 5.66 0 -4.73
v 5.66 3 -4.73
f 35/38/3 37/40/3 38/7/3 39/10/3 36/39/3 

vt -222.835 118.11
vt -222.835 0
v 4.77 0 -4.73
vt -187.795 0
v 4.77 2 -4.73
vt -187.795 78.7402
v 4.77 3 -4.73
vt -187.795 118.11
f 39/41/2 38/42/2 40/43/2 41/44/2 42/45/2 

f 41/44/2 12/15/2 11/14/2 42/45/2 

