# Alias OBJ Model File
# Exported from SketchUp, (c) 2000-2012 Trimble Navigation Limited
# File units = meters

mtllib Walls.mtl

g Mesh1 Model

usemtl FrontColor
v 0 0 -2.31
vt 0 90.9449
vn 0 -1 -0
v 1.38 0 -2.31
vt -54.3307 90.9449
v 1.38 0 -0
vt -54.3307 0
v 0 0 -0
vt 0 0
f 1/1/1 2/2/1 3/3/1 4/4/1 

v 0 0 -4.22
vt 0 166.142
v 1.4 0 -4.22
vt -55.1181 166.142
v 1.4 0 -2.31
vt -55.1181 90.9449
f 2/2/1 1/1/1 5/5/1 6/6/1 7/7/1 

v 0 0 -6.81
vt -268.11 0
vn -1 0 -0
v 0 0 -5.91
vt -232.677 0
vt -166.142 0
vt -90.9449 0
v 0 3 -0
vt 0 118.11
v 0 3 -6.81
vt -268.11 118.11
f 8/8/2 9/9/2 5/10/2 1/11/2 4/4/2 10/12/2 11/13/2 

vt 0 268.11
v 2.73 0 -6.81
vt -107.48 268.11
v 2.73 0 -5.91
vt -107.48 232.677
v 1.4 0 -5.91
vt -55.1181 232.677
vt 0 232.677
f 8/14/1 12/15/1 13/16/1 14/17/1 9/18/1 

v 2.98 0 -6.81
vt -117.323 0
vn 0 0 -1
vt -107.48 0
v 3.78 3 -6.81
vt -148.819 118.11
v 3.78 0 -6.81
vt -148.819 0
f 15/19/3 12/20/3 8/4/3 11/12/3 16/21/3 17/22/3 

v 2.98 0 -5.91
vt -117.323 232.677
vt -117.323 268.11
v 2.98 0 -6.41
vt -117.323 252.362
f 18/23/1 13/16/1 12/15/1 15/24/1 19/25/1 

v 2.98 0 -5.41
vt -117.323 212.992
v 2.73 0 -5.41
vt -107.48 212.992
f 18/23/1 20/26/1 21/27/1 13/16/1 

v 3.78 0 -6.41
vt -148.819 252.362
v 3.78 0 -5.41
vt -148.819 212.992
f 18/23/1 19/25/1 22/28/1 23/29/1 20/26/1 

vt -148.819 268.11
f 15/24/1 17/30/1 22/28/1 19/25/1 

v 3.78 0 -1.82
vt -148.819 71.6535
v 2.98 0 -1.82
vt -117.323 71.6535
v 2.98 0 -2.31
vt -117.323 90.9449
f 23/29/1 24/31/1 25/32/1 26/33/1 20/26/1 

v 3.78 0 -1.33
vt -148.819 52.3622
v 2.98 0 -1.33
vt -117.323 52.3622
f 25/32/1 24/31/1 27/34/1 28/35/1 

v 3.78 3 -1.33
vt 148.819 118.11
vn 0 0 1
v 2.18 3 -1.33
vt 85.8268 118.11
v 2.18 0 -1.33
vt 85.8268 0
vt 117.323 0
vt 148.819 0
f 29/36/4 30/37/4 31/38/4 28/39/4 27/40/4 

v 2.18 3 -0
vn 1 0 -0
v 2.18 0 -0
vt 52.3622 0
vt 52.3622 118.11
f 32/12/5 33/4/5 31/41/5 30/42/5 

vt 54.3307 0
f 33/38/4 32/37/4 10/12/4 4/4/4 3/43/4 

v 2.18 0 -2.31
vt -85.8268 90.9449
v 2.18 0 -1.82
vt -85.8268 71.6535
vt -85.8268 52.3622
vt -85.8268 0
f 2/2/1 7/7/1 34/44/1 35/45/1 31/46/1 33/47/1 3/3/1 

v 2.18 0 -4.22
vt -85.8268 166.142
f 34/44/1 7/7/1 6/6/1 36/48/1 

v 2.73 0 -4.22
vt -107.48 166.142
f 37/49/1 36/48/1 6/6/1 14/17/1 13/16/1 21/27/1 

f 20/26/1 26/33/1 34/44/1 36/48/1 37/49/1 21/27/1 

f 34/44/1 26/33/1 25/32/1 35/45/1 

f 28/35/1 31/46/1 35/45/1 25/32/1 

f 5/5/1 9/18/1 14/17/1 6/6/1 

